<?xml version="1.0" standalone="no"?>
<!DOCTYPE svg PUBLIC "-//W3C//DTD SVG 20010904//EN"
 "http://www.w3.org/TR/2001/REC-SVG-20010904/DTD/svg10.dtd">
<svg version="1.0" xmlns="http://www.w3.org/2000/svg"
 width="192.000000pt" height="192.000000pt" viewBox="0 0 192.000000 192.000000"
 preserveAspectRatio="xMidYMid meet">

<g transform="translate(0.000000,192.000000) scale(0.100000,-0.100000)"
fill="#000000" stroke="none">
<path d="M457 1872 c-41 -45 -67 -185 -67 -364 0 -152 -36 -261 -123 -377
l-40 -54 42 6 c49 6 51 0 20 -94 -29 -89 -60 -146 -109 -201 -25 -29 -36 -48
-27 -48 14 0 86 21 122 36 13 5 4 -10 -24 -42 -42 -47 -101 -154 -101 -183 0
-7 22 7 48 31 45 42 92 75 92 64 0 -3 -9 -21 -21 -40 -28 -48 -49 -130 -49
-196 l0 -54 68 67 c37 37 70 67 74 67 3 0 9 -17 13 -37 3 -21 15 -58 26 -82
l19 -45 36 35 c34 32 37 33 48 15 42 -70 76 -114 109 -140 l39 -31 21 29 21
29 11 -34 c9 -25 18 -34 34 -34 18 0 26 -11 42 -54 22 -64 21 -63 77 -85 61
-23 119 -23 191 -1 l61 20 21 62 c19 57 23 62 44 57 20 -5 24 -1 30 25 8 36
18 39 38 10 12 -16 19 -19 34 -11 30 16 101 98 120 137 9 19 20 35 23 35 3 0
19 -13 35 -30 16 -16 32 -30 35 -30 9 0 50 107 50 130 0 40 24 30 91 -36 62
-61 69 -66 69 -44 0 61 -24 160 -50 213 l-29 59 27 -17 c15 -10 46 -33 70 -52
24 -20 42 -29 42 -21 -1 27 -42 105 -86 160 l-45 57 57 -19 c84 -29 90 -26 46
28 -47 56 -76 111 -108 206 -32 94 -32 95 16 89 22 -3 40 -2 40 2 0 4 -13 22
-29 41 -90 102 -121 200 -131 419 -10 191 -21 259 -54 307 -37 55 -92 51 -161
-13 -46 -42 -133 -170 -165 -241 -17 -38 -20 -40 -69 -43 -28 -2 -72 -13 -97
-25 -26 -11 -49 -19 -51 -17 -2 3 1 16 6 31 15 38 -2 32 -43 -16 -38 -44 -44
-37 -21 27 8 22 15 41 15 42 0 6 -38 -12 -63 -30 -16 -10 -29 -18 -31 -16 -1
2 -17 34 -34 71 -53 116 -135 223 -194 254 -37 19 -82 18 -101 -4z m967 -27
c27 -41 49 -198 43 -301 -4 -49 -10 -101 -15 -114 -9 -24 -9 -23 -23 13 -12
34 -15 36 -26 21 -11 -15 -13 -14 -23 10 -5 15 -10 37 -11 49 0 12 -4 31 -9
42 -8 21 -10 17 -23 -50 -8 -43 -29 39 -25 98 2 31 3 57 1 57 -9 0 -43 -88
-43 -112 0 -36 -18 -45 -26 -13 -18 70 35 217 104 288 42 44 54 46 76 12z
m-329 -669 c-10 -14 -16 -26 -14 -26 2 0 26 7 53 15 27 8 63 15 80 14 30 0 29
-1 -19 -24 l-50 -24 85 4 c47 2 74 2 60 -1 -14 -3 -56 -12 -95 -21 -38 -8 -79
-16 -90 -18 -11 -2 -22 -4 -25 -4 -3 -1 -15 -16 -28 -35 -27 -39 -23 -90 12
-151 27 -48 56 -63 32 -16 -9 17 -12 31 -7 31 5 0 7 9 4 21 -5 19 -3 20 70 13
l75 -7 37 42 c21 22 41 41 44 41 4 0 0 -22 -8 -50 -14 -45 -19 -50 -46 -50
-20 -1 -4 -9 52 -25 97 -29 202 -89 284 -164 33 -29 58 -55 57 -57 -2 -2 -26
8 -53 21 -28 13 -63 27 -78 31 l-29 7 38 -49 c41 -55 89 -151 99 -204 l8 -35
-67 63 c-37 34 -71 62 -77 62 -6 0 -7 -14 -3 -35 6 -32 -12 -135 -23 -135 -3
0 -21 14 -41 31 -40 35 -35 39 -62 -46 -13 -42 -66 -126 -78 -124 -4 0 -23 32
-42 71 -19 40 -40 73 -47 75 -11 4 -29 -44 -47 -129 -4 -16 -12 -27 -18 -25
-6 1 -15 -16 -20 -37 -24 -112 -136 -166 -244 -117 -48 22 -80 63 -92 117 -5
22 -13 38 -19 37 -6 -1 -19 33 -29 75 -12 50 -24 77 -33 77 -8 0 -29 -29 -47
-63 -19 -35 -34 -59 -34 -54 0 19 24 78 43 106 l21 29 -27 -7 c-25 -6 -27 -4
-27 24 0 19 -5 30 -14 30 -10 0 -12 11 -8 47 4 40 3 45 -12 40 -19 -7 -21 9
-6 48 9 23 8 26 -5 21 -23 -8 -19 0 21 44 20 22 34 40 31 40 -13 0 -123 -43
-134 -53 -9 -6 -13 -6 -13 1 0 20 62 82 109 110 l46 27 -78 3 c-93 3 -96 14
-17 55 43 21 75 29 145 33 50 4 99 11 109 16 16 9 18 7 13 -6 -22 -53 -22 -52
-4 -38 26 22 57 95 57 136 0 29 -8 46 -32 72 -18 18 -35 30 -38 26 -3 -4 -34
1 -70 11 -64 17 -64 17 -17 13 26 -2 47 0 47 4 0 4 -21 17 -47 28 l-48 21 50
-6 c27 -3 65 -12 84 -20 l34 -15 -17 27 c-24 37 -15 41 22 10 46 -38 66 -101
60 -185 -5 -64 -4 -69 13 -60 25 14 73 12 87 -2 15 -15 15 -4 1 45 -18 65 4
139 57 194 46 49 68 53 39 9z m-381 -132 c3 -8 16 -15 28 -14 37 3 41 1 28
-15 -25 -30 -90 -8 -90 31 0 19 26 18 34 -2z m506 2 c0 -38 -65 -61 -89 -33
-15 19 -3 28 25 21 17 -4 26 -1 30 10 8 20 34 21 34 2z"/>
<path d="M873 783 c-53 -170 -52 -207 8 -258 36 -30 27 -36 -60 -43 -64 -4
-68 -3 -84 22 -22 33 -50 152 -45 194 2 17 0 32 -5 32 -14 0 -45 -82 -53 -139
-6 -47 -5 -53 8 -48 12 4 14 1 11 -14 -7 -27 5 -58 16 -40 6 9 19 -7 44 -52
20 -35 41 -76 46 -91 6 -14 15 -26 20 -26 5 0 12 -17 16 -39 3 -21 13 -47 21
-57 8 -11 24 -35 37 -54 12 -19 40 -44 61 -54 39 -19 40 -19 75 0 19 10 46 35
58 54 12 19 29 42 37 50 7 8 17 34 21 58 4 23 11 42 15 42 5 0 25 31 44 68 48
96 58 111 73 105 9 -4 13 4 13 27 0 21 4 29 12 24 18 -11 3 87 -24 148 l-23
53 -6 -85 c-6 -93 -33 -161 -70 -181 -23 -12 -77 -8 -122 10 l-28 11 29 25
c16 13 35 38 42 55 20 49 -2 64 -100 68 -52 3 -80 8 -80 16 0 6 6 50 14 99 7
48 10 87 6 87 -3 0 -16 -30 -27 -67z m137 -313 c18 -6 3 -8 -50 -9 -95 -2
-120 -8 -120 -32 0 -23 -13 -24 -30 -4 -17 20 -11 24 52 40 61 15 112 17 148
5z m88 -24 c5 -6 -11 -36 -19 -36 -5 0 -13 8 -16 18 -4 9 -11 21 -17 25 -6 5
2 6 19 2 16 -4 31 -8 33 -9z m-194 -231 c26 -20 81 -19 101 1 12 12 19 14 27
6 31 -31 -41 -59 -122 -46 -45 7 -53 14 -44 38 7 19 13 20 38 1z"/>
</g>
</svg>
